PathFileType	4	(X/Y/Z)	/tmp/tmpj5qvs57t//results/MarkerData/Run_5.trc
DataRate	CameraRate	NumFrames	NumMarkers	Units	OrigDataRate	OrigDataStartFrame	OrigNumFrames
100	100	8	42	m	100	64	516
Frame#	Time	C7			CLAV			LACR			LASI			LCAL			LFAradius			LFAsuperior			LFAulna			LLEL			LMEL			LMT5			LPSI			LTB1			LTB2			LTB3			LTH1			LTH2			LTH3			LTOE			LUA1			LUA2			LUA3			RACR			RASI			RCAL			RFAradius			RFAsuperior			RFAulna			RLEL			RMEL			RMT5			RPSI			RTB1			RTB2			RTB3			RTH1			RTH2			RTH3			RTOE			RUA1			RUA2			RUA3		
		X1	Y1	Z1	X2	Y2	Z2	X3	Y3	Z3	X4	Y4	Z4	X5	Y5	Z5	X6	Y6	Z6	X7	Y7	Z7	X8	Y8	Z8	X9	Y9	Z9	X10	Y10	Z10	X11	Y11	Z11	X12	Y12	Z12	X13	Y13	Z13	X14	Y14	Z14	X15	Y15	Z15	X16	Y16	Z16	X17	Y17	Z17	X18	Y18	Z18	X19	Y19	Z19	X20	Y20	Z20	X21	Y21	Z21	X22	Y22	Z22	X23	Y23	Z23	X24	Y24	Z24	X25	Y25	Z25	X26	Y26	Z26	X27	Y27	Z27	X28	Y28	Z28	X29	Y29	Z29	X30	Y30	Z30	X31	Y31	Z31	X32	Y32	Z32	X33	Y33	Z33	X34	Y34	Z34	X35	Y35	Z35	X36	Y36	Z36	X37	Y37	Z37	X38	Y38	Z38	X39	Y39	Z39	X40	Y40	Z40	X41	Y41	Z41	X42	Y42	Z42

65	0.75	0.661765	1.54891	-0.366504	0.798819	1.4787	-0.334556	0.715632	1.50927	-0.525832	0.770775	1.00153	-0.462475	0.725393	0.0882747	-0.35934	0.742826	1.08959	-0.601467	0.665072	1.16517	-0.717949	0.702962	1.04898	-0.636412	0.604442	1.27097	-0.754104	0.536973	1.25116	-0.714077	0.907905	0.0498803	-0.470924	0.580729	1.07539	-0.363763	0.865755	0.431363	-0.421433	0.808509	0.348128	-0.479944	0.853257	0.225804	-0.401648	0.707609	0.890653	-0.517314	0.805809	0.79864	-0.502904	0.766728	0.64486	-0.485205	0.960427	0.0736314	-0.394307	0.656989	1.43512	-0.632209	0.578911	1.37487	-0.637755	0.621585	1.34376	-0.702456	0.732891	1.51176	-0.180999	0.767848	0.993992	-0.206032	0.275161	0.730376	-0.316883	0.844049	1.04173	-0.0859411	0.684138	1.1437	-0.00835355	0.794533	0.995237	-0.0625435	0.636402	1.21131	-0.00791529	0.592372	1.19124	-0.0740297	0.13176	0.570655	-0.245493	0.586081	1.07128	-0.280371	0.525135	0.491194	-0.227963	0.433847	0.568733	-0.198272	0.344782	0.568833	-0.275994	0.692209	0.857972	-0.139735	0.728278	0.715331	-0.14465	0.645756	0.621449	-0.15492	0.163625	0.524428	-0.322799	0.683154	1.40935	-0.0891658	0.605853	1.33857	-0.10039	0.651926	1.30226	-0.0443414
66	0.76	0.661023	1.53857	-0.369425	0.799079	1.46815	-0.334196	0.718989	1.49808	-0.529561	0.76758	0.990063	-0.464884	0.674568	0.0838647	-0.353114	0.76529	1.08318	-0.597468	0.68936	1.15228	-0.717741	0.72915	1.03989	-0.633567	0.625505	1.25373	-0.758536	0.55679	1.2311	-0.722547	0.861588	0.0482349	-0.469498	0.57601	1.06854	-0.363971	0.849137	0.420374	-0.416421	0.786855	0.341148	-0.475586	0.816497	0.216674	-0.39279	0.701705	0.883033	-0.517334	0.798768	0.789845	-0.501174	0.759537	0.637351	-0.485853	0.911255	0.0705248	-0.391909	0.666513	1.42016	-0.636358	0.59098	1.35659	-0.645033	0.637422	1.32734	-0.707432	0.729247	1.50302	-0.182062	0.764931	0.98563	-0.208431	0.308549	0.732695	-0.310523	0.819751	1.01898	-0.0787154	0.666347	1.13378	-0.00832296	0.766664	0.975899	-0.0563948	0.623001	1.20433	-0.0103023	0.580096	1.18596	-0.0770019	0.161897	0.574024	-0.242921	0.581216	1.06274	-0.28015	0.552236	0.486395	-0.226466	0.462691	0.564724	-0.194878	0.374269	0.568904	-0.273376	0.696843	0.848801	-0.139918	0.741143	0.708937	-0.143565	0.664932	0.611141	-0.152041	0.19359	0.528961	-0.321623	0.675994	1.40184	-0.0917036	0.598357	1.33161	-0.104698	0.641147	1.29551	-0.0464966
67	0.77	0.660525	1.52965	-0.372532	0.799302	1.45847	-0.333292	0.722887	1.48816	-0.532632	0.76305	0.977843	-0.468406	0.625061	0.0833836	-0.347508	0.788397	1.07921	-0.591715	0.714561	1.14149	-0.715763	0.756417	1.03322	-0.628916	0.647188	1.23864	-0.760904	0.577876	1.21259	-0.728789	0.813119	0.0481587	-0.468039	0.571027	1.06319	-0.363792	0.830003	0.410785	-0.412126	0.761758	0.336256	-0.4716	0.778906	0.210613	-0.386709	0.694848	0.876447	-0.517588	0.790405	0.780969	-0.499586	0.749926	0.630329	-0.485381	0.861886	0.0698953	-0.390748	0.675577	1.40774	-0.638604	0.60383	1.34023	-0.650084	0.653236	1.31326	-0.710501	0.725852	1.49519	-0.183552	0.760714	0.976458	-0.211897	0.339688	0.731099	-0.303286	0.793742	0.997995	-0.0721987	0.647861	1.12551	-0.00868638	0.737546	0.959055	-0.0501635	0.609126	1.19861	-0.013233	0.568135	1.18132	-0.0808745	0.193568	0.57033	-0.24008	0.575664	1.05564	-0.279639	0.581804	0.482019	-0.225637	0.493124	0.559754	-0.191638	0.404929	0.566146	-0.270579	0.701233	0.841228	-0.140127	0.75471	0.705488	-0.143001	0.68618	0.603735	-0.149571	0.224877	0.527693	-0.320243	0.66912	1.3955	-0.0942841	0.591136	1.32549	-0.10912	0.63043	1.28985	-0.0492349
68	0.78	0.660632	1.52317	-0.375426	0.799042	1.45057	-0.332059	0.726914	1.48012	-0.534541	0.757759	0.966148	-0.471325	0.577314	0.0861262	-0.343979	0.811655	1.07861	-0.584109	0.739911	1.13364	-0.711976	0.784394	1.02988	-0.622284	0.668734	1.22644	-0.761275	0.599413	1.1964	-0.732249	0.763098	0.0489616	-0.466734	0.566661	1.05931	-0.363295	0.80789	0.40167	-0.409588	0.733699	0.332136	-0.469013	0.740716	0.206328	-0.383837	0.687467	0.871062	-0.51783	0.781316	0.772871	-0.498707	0.737847	0.623612	-0.484372	0.813211	0.0693611	-0.389934	0.683718	1.39787	-0.639326	0.616482	1.3259	-0.652363	0.668292	1.30193	-0.711693	0.722574	1.48882	-0.185001	0.755748	0.967804	-0.214755	0.366324	0.726024	-0.296107	0.766358	0.979604	-0.0671702	0.629088	1.11973	-0.00942673	0.70757	0.945799	-0.0443615	0.594894	1.19492	-0.0165416	0.556197	1.17824	-0.0853593	0.225642	0.559345	-0.23687	0.570709	1.05023	-0.279251	0.613101	0.478563	-0.225292	0.524068	0.554534	-0.189098	0.435693	0.561263	-0.268134	0.704655	0.83636	-0.140499	0.769289	0.706	-0.143242	0.709621	0.60047	-0.147341	0.256932	0.520211	-0.318695	0.662576	1.39034	-0.0964823	0.584014	1.32081	-0.113746	0.619739	1.28562	-0.0525436
69	0.79	0.661291	1.51926	-0.377658	0.79813	1.4448	-0.330793	0.730734	1.47439	-0.535247	0.752779	0.956673	-0.471858	0.529837	0.0903474	-0.34303	0.83457	1.08211	-0.574858	0.764755	1.12945	-0.706505	0.812617	1.03071	-0.613696	0.689513	1.21729	-0.759966	0.620823	1.18304	-0.733028	0.712529	0.0495559	-0.46614	0.563047	1.0564	-0.362916	0.782233	0.392455	-0.408556	0.70325	0.327889	-0.46787	0.700893	0.20269	-0.383037	0.680116	0.86659	-0.517569	0.771935	0.765767	-0.498148	0.723645	0.617134	-0.483736	0.764393	0.0683962	-0.389644	0.691453	1.39017	-0.639258	0.628489	1.31339	-0.652004	0.682334	1.29321	-0.711307	0.719371	1.48412	-0.185906	0.751044	0.961433	-0.215315	0.387204	0.717466	-0.289892	0.738281	0.965155	-0.0634779	0.610319	1.11696	-0.0104594	0.677319	0.9368	-0.0396379	0.580402	1.19372	-0.0199299	0.543942	1.17749	-0.0899665	0.257704	0.541406	-0.233369	0.567002	1.04657	-0.27921	0.645356	0.476932	-0.225435	0.554367	0.549615	-0.18768	0.46546	0.555006	-0.266447	0.706665	0.834456	-0.141093	0.784694	0.710781	-0.144482	0.734629	0.601951	-0.145507	0.289608	0.506434	-0.316802	0.656102	1.38657	-0.0981527	0.57673	1.31823	-0.118797	0.60877	1.28327	-0.0561987
70	0.8	0.66204	1.51738	-0.379048	0.796769	1.44109	-0.329534	0.734388	1.47107	-0.535131	0.748858	0.950642	-0.469819	0.481535	0.095158	-0.344175	0.856683	1.0901	-0.564451	0.788608	1.12922	-0.699655	0.840533	1.03627	-0.603374	0.709075	1.21093	-0.757282	0.641819	1.1726	-0.731594	0.661971	0.0494387	-0.466587	0.559936	1.05411	-0.36314	0.75283	0.383604	-0.408324	0.670456	0.323854	-0.46763	0.658826	0.199706	-0.383238	0.673126	0.862788	-0.516789	0.76215	0.759176	-0.497556	0.707255	0.611208	-0.483775	0.714609	0.0675639	-0.390358	0.699748	1.38445	-0.63886	0.64005	1.30299	-0.649889	0.69552	1.28673	-0.709657	0.716228	1.4811	-0.186052	0.747332	0.958568	-0.213402	0.40276	0.704841	-0.285154	0.710546	0.956013	-0.0603288	0.591525	1.11718	-0.0117061	0.647609	0.932199	-0.0365967	0.565635	1.19512	-0.0231411	0.531154	1.17944	-0.0942597	0.290095	0.51747	-0.229721	0.564247	1.04481	-0.279603	0.67798	0.478292	-0.226435	0.583378	0.545324	-0.187335	0.493609	0.547601	-0.265473	0.707477	0.835227	-0.141652	0.799971	0.719601	-0.146524	0.759905	0.608067	-0.144499	0.323115	0.486847	-0.314381	0.649244	1.38468	-0.0994466	0.569039	1.31823	-0.12425	0.597212	1.28332	-0.0598517
71	0.81	0.662431	1.51691	-0.379753	0.795315	1.43928	-0.328001	0.738221	1.46998	-0.534459	0.745898	0.948428	-0.466827	0.432759	0.101159	-0.346429	0.877549	1.10254	-0.553448	0.811057	1.13275	-0.691787	0.867507	1.0466	-0.591679	0.727144	1.20695	-0.753397	0.662306	1.16486	-0.728409	0.611442	0.0489446	-0.467796	0.557486	1.05266	-0.364161	0.72019	0.376297	-0.408527	0.635142	0.321297	-0.467817	0.615108	0.198314	-0.38409	0.666634	0.859763	-0.515941	0.75142	0.752512	-0.496993	0.688324	0.606511	-0.484092	0.664007	0.0672251	-0.391935	0.709048	1.38092	-0.638084	0.651503	1.29544	-0.647147	0.708122	1.28226	-0.706932	0.713008	1.4797	-0.185621	0.744611	0.959458	-0.210446	0.414742	0.687337	-0.281968	0.684188	0.952594	-0.0573258	0.572569	1.12009	-0.0132061	0.619352	0.931753	-0.0356019	0.550542	1.19898	-0.0260975	0.517827	1.18404	-0.0980692	0.323469	0.488891	-0.225951	0.561853	1.04511	-0.280482	0.710453	0.483274	-0.228623	0.611078	0.541697	-0.187601	0.520306	0.538583	-0.264784	0.707985	0.838486	-0.141676	0.81402	0.731944	-0.148779	0.783991	0.618226	-0.144681	0.35786	0.462453	-0.311411	0.641656	1.38516	-0.100596	0.560782	1.32077	-0.129651	0.585025	1.28606	-0.0631772
72	0.82	0.662395	1.5177	-0.380038	0.793987	1.43937	-0.32588	0.742485	1.47093	-0.533061	0.743297	0.949743	-0.464762	0.384679	0.109556	-0.348985	0.896713	1.11911	-0.542279	0.831693	1.13953	-0.683166	0.892837	1.06135	-0.579037	0.743606	1.20509	-0.748436	0.682137	1.15957	-0.723749	0.56094	0.0486584	-0.469093	0.5563	1.05265	-0.365874	0.685366	0.37166	-0.409147	0.597652	0.321495	-0.4683	0.570958	0.199513	-0.385473	0.660868	0.85789	-0.515372	0.739367	0.745833	-0.49658	0.666971	0.603808	-0.484211	0.613344	0.0671211	-0.393649	0.718891	1.37981	-0.636652	0.662842	1.29139	-0.644532	0.720296	1.27982	-0.703245	0.709452	1.48004	-0.184969	0.74243	0.96369	-0.208102	0.425229	0.664452	-0.280133	0.659844	0.95406	-0.0549358	0.553594	1.12538	-0.0151176	0.593298	0.935054	-0.0366322	0.535203	1.20509	-0.0288996	0.504161	1.19102	-0.101526	0.358505	0.457046	-0.221994	0.559632	1.04733	-0.281826	0.742083	0.491244	-0.23171	0.637671	0.538453	-0.18802	0.546358	0.527343	-0.264005	0.70932	0.844259	-0.140895	0.826508	0.747063	-0.150676	0.805759	0.631633	-0.146104	0.394406	0.434485	-0.307981	0.63336	1.38814	-0.101718	0.551968	1.32542	-0.134383	0.572524	1.29138	-0.0659862
